<?xml version="1.0" encoding="utf-8"?>
<!-- Generator: Adobe Illustrator 22.0.0, SVG Export Plug-In . SVG Version: 6.00 Build 0)  -->
<svg version="1.1" id="COLOUR" xmlns="http://www.w3.org/2000/svg" xmlns:xlink="http://www.w3.org/1999/xlink" x="0px" y="0px"
	 viewBox="0 0 300 250" style="enable-background:new 0 0 300 250;" xml:space="preserve">
<style type="text/css">
	.st0{fill:#5F6269;}
	.st1{fill:#4285F4;}
	.st2{fill:#EA4335;}
	.st3{fill:#FBBC05;}
	.st4{fill:#34A853;}
</style>
<path id="Grow_with" class="st0" d="M26.9,25.4c1.6,0.1,3.1-0.6,4.2-1.7c0.5-0.5,0.8-1.1,1.1-1.8c0.2-0.7,0.3-1.4,0.3-2.1
	c0-0.3,0-0.6-0.1-0.8h-5.5v1.3h4.2c0,0.5-0.1,1-0.3,1.4c-0.2,0.4-0.4,0.8-0.7,1.1c-1.5,1.4-3.7,1.7-5.5,0.7c-0.7-0.4-1.3-1-1.7-1.7
	c-0.4-0.8-0.6-1.6-0.6-2.5c0-0.9,0.2-1.7,0.6-2.5c0.8-1.4,2.3-2.2,3.9-2.2c0.6,0,1.2,0.1,1.8,0.4c0.5,0.2,1,0.6,1.4,1l1-1
	c-0.5-0.6-1.1-1-1.8-1.3c-0.8-0.3-1.6-0.5-2.4-0.4c-1,0-2.1,0.3-3,0.8c-0.9,0.5-1.6,1.3-2.1,2.2c-1.1,1.9-1.1,4.2,0,6.1
	c0.5,0.9,1.3,1.7,2.1,2.2C24.8,25.2,25.9,25.4,26.9,25.4L26.9,25.4L26.9,25.4z M33.9,25.2h1.4v-4.5c0-0.4,0.1-0.8,0.3-1.2
	c0.2-0.4,0.4-0.7,0.8-0.9c0.3-0.2,0.7-0.3,1-0.3c0.4,0,0.8,0.1,1.1,0.2v-1.5c-0.3-0.1-0.6-0.2-0.9-0.2c-0.5,0-1,0.2-1.4,0.5
	c-0.4,0.3-0.7,0.6-0.9,1.1h-0.1v-1.3h-1.3L33.9,25.2L33.9,25.2z M42.8,25.4c0.7,0,1.5-0.2,2.1-0.6c0.6-0.4,1.1-0.9,1.5-1.5
	c0.7-1.4,0.7-3,0-4.3c-0.3-0.6-0.8-1.2-1.5-1.5c-0.6-0.4-1.4-0.6-2.1-0.6c-0.7,0-1.5,0.2-2.1,0.6c-0.6,0.4-1.1,0.9-1.4,1.5
	c-0.7,1.4-0.7,3,0,4.3c0.3,0.6,0.8,1.2,1.4,1.5C41.4,25.3,42.1,25.4,42.8,25.4L42.8,25.4z M42.8,24.2c-0.5,0-0.9-0.1-1.3-0.4
	c-0.4-0.3-0.8-0.6-1-1.1c-0.5-1-0.5-2.2,0-3.2c0.2-0.4,0.6-0.8,1-1.1c0.4-0.2,0.9-0.4,1.3-0.4c0.5,0,0.9,0.1,1.3,0.4
	c0.4,0.3,0.8,0.6,1,1.1c0.5,1,0.5,2.2,0,3.2c-0.2,0.4-0.6,0.8-1,1.1C43.8,24.1,43.3,24.2,42.8,24.2L42.8,24.2z M49.9,25.2h1.4l2-6.3
	l2,6.3h1.4l2.6-8h-1.4l-1.8,6.2h0l-2-6.2h-1.4l-2,6.2h0l-1.8-6.2h-1.4L49.9,25.2z M65.7,25.2h1.4l2-6.3l2,6.3h1.4l2.6-8h-1.4
	l-1.8,6.2h0l-2-6.2h-1.4l-2,6.2h0l-1.8-6.2h-1.4L65.7,25.2z M76.9,15.5c0.3,0,0.5-0.1,0.7-0.3c0.2-0.2,0.3-0.4,0.3-0.7
	c0-0.3-0.1-0.5-0.3-0.7c-0.4-0.4-1-0.4-1.4,0c0,0,0,0,0,0c-0.4,0.4-0.4,1,0,1.4C76.4,15.4,76.7,15.5,76.9,15.5L76.9,15.5L76.9,15.5z
	 M76.3,25.2h1.3v-8h-1.3L76.3,25.2L76.3,25.2z M82.7,25.4c0.2,0,0.4,0,0.6,0c0.2,0,0.3-0.1,0.5-0.1v-1.3c-0.3,0.2-0.6,0.2-0.9,0.2
	c-0.3,0-0.6-0.1-0.8-0.4c-0.2-0.3-0.3-0.7-0.3-1v-4.3h1.9v-1.2h-1.9v-2.4h-1.3v2.4h-1.4v1.2h1.4v4.7c0,0.3,0,0.7,0.2,1
	c0.1,0.3,0.3,0.5,0.5,0.7c0.2,0.2,0.4,0.3,0.7,0.4C82.1,25.4,82.4,25.4,82.7,25.4L82.7,25.4L82.7,25.4z M85.4,25.2h1.4v-4.3
	c0-0.4,0.1-0.9,0.3-1.3c0.2-0.4,0.5-0.7,0.8-1c0.3-0.2,0.7-0.4,1.2-0.4c0.5,0,1,0.2,1.4,0.5c0.4,0.4,0.6,1,0.5,1.6v4.8h1.3v-5
	c0-0.8-0.2-1.7-0.7-2.3c-0.6-0.6-1.4-0.9-2.2-0.9c-0.5,0-1.1,0.1-1.5,0.4c-0.4,0.2-0.8,0.6-1,1h-0.1l0.1-1.1v-3.6h-1.4L85.4,25.2
	L85.4,25.2z"/>
<g id="GOOGLE">
	<path id="G" class="st1" d="M104.5,18.4v1.9h4.6c-0.1,0.9-0.4,1.7-1,2.4c-0.9,0.9-2.2,1.5-3.5,1.4c-2.8,0-5.1-2.3-5-5.2
		c0-2.8,2.3-5,5-5c1.3,0,2.5,0.5,3.5,1.4l1.3-1.3c-1.3-1.3-3-2-4.8-1.9c-3.9,0-7.1,3.1-7.1,7c0.1,3.9,3.2,7,7.1,7
		c1.8,0.1,3.6-0.6,4.9-2c1.1-1.2,1.7-2.8,1.7-4.5c0-0.4,0-0.8-0.1-1.2L104.5,18.4L104.5,18.4z"/>
	<path id="o" class="st2" d="M116.4,16.9c-2.5,0-4.5,2.1-4.5,4.6c0,2.5,2.1,4.5,4.6,4.5c2.5,0,4.5-2.1,4.5-4.6c0-2.5-2-4.5-4.4-4.6
		C116.5,16.9,116.4,16.9,116.4,16.9z M116.4,24.2c-1.5,0-2.6-1.2-2.6-2.7c0,0,0,0,0-0.1c-0.1-1.4,1-2.7,2.4-2.8s2.7,1,2.8,2.4
		c0,0.1,0,0.2,0,0.3C119,22.9,117.9,24.1,116.4,24.2C116.4,24.2,116.4,24.2,116.4,24.2L116.4,24.2z"/>
	<path id="o-2" class="st3" d="M126.2,16.9c-2.5,0-4.5,2.1-4.5,4.6c0,2.5,2.1,4.5,4.6,4.5c2.5,0,4.5-2.1,4.5-4.6
		c0-2.5-2-4.5-4.4-4.6C126.3,16.9,126.3,16.9,126.2,16.9z M126.2,24.2c-1.5,0-2.6-1.2-2.6-2.7c0,0,0,0,0-0.1c-0.1-1.4,1-2.7,2.4-2.8
		c1.4-0.1,2.7,1,2.8,2.4c0,0.1,0,0.2,0,0.4C128.9,22.9,127.7,24.1,126.2,24.2C126.3,24.2,126.2,24.2,126.2,24.2L126.2,24.2z"/>
	<path id="g-2" class="st1" d="M138.1,17.9L138.1,17.9c-0.7-0.7-1.5-1-2.4-1c-2.4,0.1-4.3,2.1-4.2,4.5c-0.1,2.4,1.8,4.4,4.2,4.5
		c0.9,0,1.8-0.4,2.4-1h0.1v0.6c0,1.7-0.9,2.7-2.4,2.7c-1,0-1.9-0.7-2.3-1.6l-1.7,0.7c0.7,1.6,2.2,2.7,4,2.7c2.3,0,4.3-1.4,4.3-4.7
		v-8.2h-1.9V17.9z M135.9,24.2c-1.4-0.1-2.5-1.3-2.4-2.7c0,0,0-0.1,0-0.1c-0.1-1.4,0.9-2.6,2.3-2.7c0,0,0.1,0,0.1,0
		c1.4,0.1,2.5,1.3,2.4,2.7c0,0,0,0.1,0,0.1c0.1,1.4-0.9,2.6-2.3,2.7C135.9,24.2,135.9,24.2,135.9,24.2L135.9,24.2z"/>
	<rect id="l" x="141.3" y="12.2" class="st4" width="2" height="13.6"/>
	<path id="e" class="st2" d="M149.2,24.2c-0.9,0-1.8-0.5-2.2-1.4l6-2.5l-0.2-0.5c-0.5-1.7-2.1-2.8-3.9-2.9c-2.4,0-4.3,2-4.3,4.3
		c0,0.1,0,0.1,0,0.2c-0.1,2.4,1.8,4.5,4.3,4.6c0.1,0,0.1,0,0.2,0c1.5,0,2.9-0.8,3.7-2l-1.5-1C150.9,23.7,150.1,24.2,149.2,24.2
		L149.2,24.2L149.2,24.2z M149,18.6c0.7,0,1.4,0.4,1.7,1l-4.1,1.7c-0.1-1.4,0.9-2.6,2.2-2.7C148.9,18.6,149,18.6,149,18.6z"/>
</g>
</svg>
